<svg width="390" height="844" viewBox="0 0 390 844" fill="none" xmlns="http://www.w3.org/2000/svg">
<g clip-path="url(#clip0_8346_2359)">
<path d="M390.099 0H0V844.069H390.099V0Z" fill="#D6C4E4"/>
<mask id="mask0_8346_2359" style="mask-type:luminance" maskUnits="userSpaceOnUse" x="0" y="0" width="391" height="845">
<path d="M390.099 0H0V844.069H390.099V0Z" fill="white"/>
</mask>
<g mask="url(#mask0_8346_2359)">
<path opacity="0.5" d="M-9.11963 610.072V848.941H399.219V591.699C396.54 588.646 396.739 586.6 390.814 591.699C385.306 596.453 379.074 620.123 377.755 635.985C378.122 627.545 377.923 605.842 366.352 604.468C351.953 602.768 344.183 621.249 344.183 621.249C344.183 621.249 345.711 603.272 334.061 605.99C322.42 608.708 317.826 639.325 317.826 639.325C317.826 639.325 318.441 629.126 313.846 629.126C309.251 629.126 308.09 639.325 308.09 639.325C308.09 639.325 306.185 627.416 290.883 629.452C275.571 631.498 275.868 655.306 275.868 655.306C275.868 655.306 272.504 634.226 267.294 633.88C263.136 633.613 261.32 643.545 260.764 647.548C261.271 642.586 261.955 628.049 252.29 629.452C243.845 630.697 240.729 640.897 239.647 646.391C240.084 642.458 240.232 636.716 237.096 637.615C232.393 638.979 231.41 649.178 231.41 649.178C231.41 649.178 230.487 638.297 225.466 638.979C220.752 639.622 216.932 653.408 216.455 655.128C216.981 652.756 222.419 626.606 206.045 624.007C189.651 621.407 184.62 639.948 184.213 641.578C184.442 640.402 186.337 630.45 182.377 630.124C178.18 629.778 177.882 641.351 177.882 641.351C177.882 641.351 177.485 626.724 170.796 628.088C167.661 628.721 166.321 631.152 165.805 633.554C165.527 629.63 164.158 625.123 159.196 625.716C150.622 626.734 151.545 641.697 151.545 641.697C151.545 641.697 145.848 615.804 135.379 621.951C124.899 628.098 123.064 640.333 123.064 640.333C123.064 640.333 117.864 619.213 102.551 621.951C87.9537 624.57 86.1575 644.079 86.0285 645.897C86.098 643.693 86.7132 616.387 66.727 616.189C53.1613 616.061 44.3689 641.361 44.3689 641.361C44.3689 641.361 42.5331 619.549 35.1796 621.951C27.8361 624.353 21.7033 638.297 21.7033 638.297C21.7033 638.297 26.2979 616.871 17.1086 617.899C8.20709 618.877 4.76358 627.851 4.56511 628.405C4.66434 627.446 6.83763 607.413 -9.11963 610.072Z" fill="#646D30"/>
</g>
<path opacity="0.5" d="M195.05 407.591C256.806 407.591 306.87 357.733 306.87 296.23C306.87 234.727 256.806 184.87 195.05 184.87C133.293 184.87 83.23 234.727 83.23 296.23C83.23 357.733 133.293 407.591 195.05 407.591Z" fill="url(#paint0_linear_8346_2359)"/>
<path fill-rule="evenodd" clip-rule="evenodd" d="M71.1318 439.7L96.6853 509.938L108.951 652.963C173.395 654.327 219.868 654.327 284.322 652.963L296.588 509.938L322.141 439.7L196.865 333.825H196.418L71.1418 439.7H71.1318Z" fill="#903F2A"/>
<mask id="mask1_8346_2359" style="mask-type:luminance" maskUnits="userSpaceOnUse" x="71" y="333" width="252" height="321">
<path d="M71.1318 439.7L96.6853 509.938L108.951 652.963C173.395 654.327 219.868 654.327 284.322 652.963L296.588 509.938L322.141 439.7L196.865 333.825H196.418L71.1418 439.7H71.1318Z" fill="white"/>
</mask>
<g mask="url(#mask1_8346_2359)">
<path d="M55.9297 509.335H331.897" stroke="#EA9D73" stroke-width="0.45" stroke-miterlimit="10"/>
<path d="M55.9297 494.6H331.897" stroke="#EA9D73" stroke-width="0.45" stroke-miterlimit="10"/>
<path d="M55.9297 479.875H331.897" stroke="#EA9D73" stroke-width="0.45" stroke-miterlimit="10"/>
<path d="M55.9297 465.139H331.897" stroke="#EA9D73" stroke-width="0.45" stroke-miterlimit="10"/>
<path d="M55.9297 450.414H331.897" stroke="#EA9D73" stroke-width="0.45" stroke-miterlimit="10"/>
<path d="M55.9297 435.678H331.897" stroke="#EA9D73" stroke-width="0.45" stroke-miterlimit="10"/>
<path d="M55.9297 420.953H331.897" stroke="#EA9D73" stroke-width="0.45" stroke-miterlimit="10"/>
<path d="M55.9297 406.227H331.897" stroke="#EA9D73" stroke-width="0.45" stroke-miterlimit="10"/>
<path d="M55.9297 391.492H331.897" stroke="#EA9D73" stroke-width="0.45" stroke-miterlimit="10"/>
<path d="M55.9297 376.766H331.897" stroke="#EA9D73" stroke-width="0.45" stroke-miterlimit="10"/>
<path d="M55.9297 362.031H331.897" stroke="#EA9D73" stroke-width="0.45" stroke-miterlimit="10"/>
<path d="M55.9297 347.305H331.897" stroke="#EA9D73" stroke-width="0.45" stroke-miterlimit="10"/>
</g>
<path opacity="0.3" fill-rule="evenodd" clip-rule="evenodd" d="M71.1318 439.7L79.4082 462.451L197.807 359.036L315.83 457.064L322.141 439.7L196.865 333.834H196.408L71.1318 439.7Z" fill="#45202C"/>
<path fill-rule="evenodd" clip-rule="evenodd" d="M47.1362 449.109L64.5126 455.473L198.174 343.747L329.137 455.602L346.136 449.049L198.045 322.183L47.1362 449.109Z" fill="#EA9D73"/>
<path d="M196.636 485.685C211.933 485.685 224.333 473.854 224.333 459.258C224.333 444.663 211.933 432.832 196.636 432.832C181.34 432.832 168.939 444.663 168.939 459.258C168.939 473.854 181.34 485.685 196.636 485.685Z" fill="#EA9D73"/>
<path d="M194.989 485.616C209.376 485.616 221.039 473.815 221.039 459.258C221.039 444.702 209.376 432.901 194.989 432.901C180.602 432.901 168.939 444.702 168.939 459.258C168.939 473.815 180.602 485.616 194.989 485.616Z" fill="#EA9D73"/>
<path fill-rule="evenodd" clip-rule="evenodd" d="M219.025 459.258C219.025 458.705 218.995 458.151 218.955 457.608C218.955 457.509 218.945 457.41 218.935 457.302C218.886 456.788 218.816 456.284 218.737 455.789C218.717 455.661 218.687 455.533 218.667 455.394C218.578 454.94 218.479 454.495 218.36 454.05C218.32 453.902 218.27 453.754 218.231 453.595C218.131 453.24 218.012 452.884 217.893 452.538C217.824 452.35 217.764 452.162 217.695 451.975C217.556 451.599 217.397 451.224 217.228 450.858C217.119 450.621 217.01 450.393 216.901 450.166C216.802 449.978 216.702 449.79 216.603 449.603C216.385 449.198 216.157 448.792 215.909 448.407C215.839 448.288 215.76 448.17 215.69 448.061C215.254 447.399 214.807 446.747 214.301 446.124C214.281 446.124 214.271 446.114 214.251 446.104C210.143 441.113 203.772 437.901 196.637 437.901C184.302 437.901 174.249 447.498 174.249 459.258C174.249 467.313 178.963 474.35 185.899 477.986C185.899 477.986 185.909 478.006 185.919 478.016C186.574 478.352 187.249 478.658 187.944 478.935C188.251 479.064 188.569 479.182 188.886 479.291C188.956 479.311 189.015 479.34 189.085 479.36C189.383 479.459 189.67 479.558 189.978 479.647C190.048 479.667 190.127 479.686 190.196 479.706C190.673 479.844 191.159 479.963 191.645 480.072C191.834 480.111 192.022 480.161 192.211 480.19C192.409 480.23 192.608 480.259 192.806 480.289C193.044 480.329 193.273 480.368 193.511 480.398C193.689 480.418 193.878 480.447 194.057 480.467C194.335 480.497 194.602 480.526 194.88 480.546C195.029 480.556 195.188 480.576 195.337 480.576C195.764 480.596 196.18 480.615 196.607 480.615C196.617 480.615 196.627 480.615 196.637 480.615C208.595 480.615 218.37 471.671 218.995 460.405C219.015 460.019 219.025 459.644 219.025 459.248V459.258Z" fill="#45202C"/>
<path d="M251.286 667.284H141.977V793.666H251.286V667.284Z" fill="#903F2A"/>
<path fill-rule="evenodd" clip-rule="evenodd" d="M96.6963 524.604L108.952 667.541C173.396 668.905 219.869 668.905 284.323 667.541L296.579 524.604H96.6963Z" fill="#EA9D73"/>
<mask id="mask2_8346_2359" style="mask-type:luminance" maskUnits="userSpaceOnUse" x="96" y="524" width="201" height="145">
<path d="M96.6968 524.604L108.953 667.541C173.397 668.905 219.869 668.905 284.324 667.541L296.579 524.604H96.6968Z" fill="white"/>
</mask>
<g mask="url(#mask2_8346_2359)">
<path d="M107.89 523.32V667.956" stroke="#9B5C3D" stroke-width="0.33" stroke-miterlimit="10"/>
<path d="M122.687 523.32V667.956" stroke="#9B5C3D" stroke-width="0.33" stroke-miterlimit="10"/>
<path d="M137.473 523.32V667.956" stroke="#9B5C3D" stroke-width="0.33" stroke-miterlimit="10"/>
<path d="M152.269 523.32V667.956" stroke="#9B5C3D" stroke-width="0.33" stroke-miterlimit="10"/>
<path d="M167.055 523.32V667.956" stroke="#9B5C3D" stroke-width="0.33" stroke-miterlimit="10"/>
<path d="M181.852 523.32V667.956" stroke="#9B5C3D" stroke-width="0.33" stroke-miterlimit="10"/>
<path d="M196.638 523.32V667.956" stroke="#9B5C3D" stroke-width="0.33" stroke-miterlimit="10"/>
<path d="M211.433 523.32V667.956" stroke="#9B5C3D" stroke-width="0.33" stroke-miterlimit="10"/>
<path d="M226.22 523.32V667.956" stroke="#9B5C3D" stroke-width="0.33" stroke-miterlimit="10"/>
<path d="M241.006 523.32V667.956" stroke="#9B5C3D" stroke-width="0.33" stroke-miterlimit="10"/>
<path d="M255.803 523.32V667.956" stroke="#9B5C3D" stroke-width="0.33" stroke-miterlimit="10"/>
<path d="M270.588 523.32V667.956" stroke="#9B5C3D" stroke-width="0.33" stroke-miterlimit="10"/>
<path d="M285.385 523.32V667.956" stroke="#9B5C3D" stroke-width="0.33" stroke-miterlimit="10"/>
</g>
<path d="M306.869 527.668H86.4053V541.791H306.869V527.668Z" fill="#903F2A"/>
<path d="M292.083 653.418H101.181V670.239H292.083V653.418Z" fill="#903F2A"/>
<path d="M390.05 653.143V845H0.0498047V633.345C2.60946 630.056 2.42096 627.849 8.07601 633.345C13.3342 638.472 19.2869 663.978 20.5469 681.067C20.1996 671.971 20.3881 648.583 31.4403 647.101C45.191 645.272 52.612 665.182 52.612 665.182C52.612 665.182 51.1536 645.808 62.2752 648.739C73.3968 651.671 77.7819 684.657 77.7819 684.657C77.7819 684.657 77.1966 673.665 81.5817 673.665C85.9669 673.665 87.078 684.657 87.078 684.657C87.078 684.657 88.8936 671.826 103.517 674.022C118.141 676.229 117.853 701.88 117.853 701.88C117.853 701.88 121.068 679.161 126.038 678.793C130.007 678.503 131.743 689.205 132.279 693.519C131.793 688.168 131.138 672.506 140.374 674.022C148.44 675.36 151.417 686.351 152.448 692.27C152.032 688.034 151.893 681.848 154.889 682.817C159.383 684.289 160.316 695.28 160.316 695.28C160.316 695.28 161.199 683.553 165.991 684.289C170.495 684.98 174.146 699.84 174.592 701.69C174.086 699.137 168.898 670.956 184.533 668.158C200.189 665.36 205.001 685.337 205.388 687.098C205.169 685.827 203.364 675.103 207.144 674.758C211.152 674.39 211.44 686.853 211.44 686.853C211.44 686.853 211.817 671.09 218.206 672.562C221.202 673.242 222.482 675.861 222.978 678.448C223.246 674.223 224.555 669.362 229.288 669.998C237.473 671.09 236.6 687.221 236.6 687.221C236.6 687.221 242.036 659.318 252.037 665.94C262.047 672.562 263.803 685.749 263.803 685.749C263.803 685.749 268.774 662.986 283.398 665.94C297.337 668.76 299.053 689.785 299.182 691.747C299.113 689.372 298.527 659.943 317.616 659.731C330.573 659.597 338.966 686.853 338.966 686.853C338.966 686.853 340.722 663.354 347.746 665.94C354.76 668.526 360.614 683.553 360.614 683.553C360.614 683.553 356.229 660.467 364.999 661.57C373.501 662.629 376.785 672.294 376.984 672.896C376.884 671.859 374.811 650.278 390.05 653.143Z" fill="#646D30"/>
<path d="M390.05 487H0.0498047V845H390.05V487Z" fill="url(#paint1_linear_8346_2359)" style="mix-blend-mode:hard-light"/>
</g>
<defs>
<linearGradient id="paint0_linear_8346_2359" x1="195.05" y1="184.87" x2="195.05" y2="407.591" gradientUnits="userSpaceOnUse">
<stop stop-color="white"/>
<stop offset="1" stop-color="white" stop-opacity="0"/>
</linearGradient>
<linearGradient id="paint1_linear_8346_2359" x1="195.05" y1="487" x2="195.05" y2="845" gradientUnits="userSpaceOnUse">
<stop stop-color="#F1F1F0" stop-opacity="0"/>
<stop offset="1" stop-color="#6B7076"/>
</linearGradient>
<clipPath id="clip0_8346_2359">
<rect width="390" height="844" fill="white"/>
</clipPath>
</defs>
</svg>
